<mxfile host="app.diagrams.net" modified="2023-08-18T18:01:56.918Z" agent="Mozilla/5.0 (Macintosh; Intel Mac OS X 10_15_7) AppleWebKit/537.36 (KHTML, like Gecko) Chrome/116.0.0.0 Safari/537.36" etag="wt38oyQHPHy4Nj4fnS9u" version="21.5.0" type="github">
  <diagram name="Page-1" id="rtzJtNzH6zPdSwg-o41P">
    <mxGraphModel dx="1263" dy="830" grid="1" gridSize="10" guides="1" tooltips="1" connect="1" arrows="1" fold="1" page="1" pageScale="1" pageWidth="850" pageHeight="1100" math="0" shadow="0">
      <root>
        <mxCell id="0" />
        <mxCell id="1" parent="0" />
        <mxCell id="aPBboaxFpd1WZXJEu6mX-4" style="edgeStyle=orthogonalEdgeStyle;rounded=0;orthogonalLoop=1;jettySize=auto;html=1;exitX=1;exitY=0.5;exitDx=0;exitDy=0;entryX=0;entryY=0.5;entryDx=0;entryDy=0;" edge="1" parent="1" source="aPBboaxFpd1WZXJEu6mX-1" target="aPBboaxFpd1WZXJEu6mX-3">
          <mxGeometry relative="1" as="geometry" />
        </mxCell>
        <mxCell id="aPBboaxFpd1WZXJEu6mX-17" style="edgeStyle=orthogonalEdgeStyle;rounded=0;orthogonalLoop=1;jettySize=auto;html=1;exitX=0.5;exitY=1;exitDx=0;exitDy=0;entryX=0;entryY=0.5;entryDx=0;entryDy=0;" edge="1" parent="1" source="aPBboaxFpd1WZXJEu6mX-1" target="aPBboaxFpd1WZXJEu6mX-16">
          <mxGeometry relative="1" as="geometry" />
        </mxCell>
        <mxCell id="aPBboaxFpd1WZXJEu6mX-1" value="login/signup" style="rounded=1;whiteSpace=wrap;html=1;arcSize=50;" vertex="1" parent="1">
          <mxGeometry x="70" y="80" width="100" height="60" as="geometry" />
        </mxCell>
        <mxCell id="aPBboaxFpd1WZXJEu6mX-6" style="edgeStyle=orthogonalEdgeStyle;rounded=0;orthogonalLoop=1;jettySize=auto;html=1;exitX=1;exitY=0.5;exitDx=0;exitDy=0;" edge="1" parent="1" source="aPBboaxFpd1WZXJEu6mX-3" target="aPBboaxFpd1WZXJEu6mX-5">
          <mxGeometry relative="1" as="geometry" />
        </mxCell>
        <mxCell id="aPBboaxFpd1WZXJEu6mX-3" value="canInteract = false" style="rounded=1;whiteSpace=wrap;html=1;" vertex="1" parent="1">
          <mxGeometry x="230" y="80" width="120" height="60" as="geometry" />
        </mxCell>
        <mxCell id="aPBboaxFpd1WZXJEu6mX-9" style="edgeStyle=orthogonalEdgeStyle;rounded=0;orthogonalLoop=1;jettySize=auto;html=1;exitX=1;exitY=0.5;exitDx=0;exitDy=0;entryX=0;entryY=0.5;entryDx=0;entryDy=0;" edge="1" parent="1" source="aPBboaxFpd1WZXJEu6mX-5" target="aPBboaxFpd1WZXJEu6mX-8">
          <mxGeometry relative="1" as="geometry" />
        </mxCell>
        <mxCell id="aPBboaxFpd1WZXJEu6mX-5" value="Load HomeEntryBatch" style="rounded=1;whiteSpace=wrap;html=1;" vertex="1" parent="1">
          <mxGeometry x="400" y="80" width="120" height="60" as="geometry" />
        </mxCell>
        <mxCell id="aPBboaxFpd1WZXJEu6mX-15" style="edgeStyle=orthogonalEdgeStyle;rounded=0;orthogonalLoop=1;jettySize=auto;html=1;exitX=0.5;exitY=1;exitDx=0;exitDy=0;entryX=1;entryY=0.5;entryDx=0;entryDy=0;" edge="1" parent="1" source="aPBboaxFpd1WZXJEu6mX-8" target="aPBboaxFpd1WZXJEu6mX-16">
          <mxGeometry relative="1" as="geometry">
            <mxPoint x="570" y="270" as="targetPoint" />
          </mxGeometry>
        </mxCell>
        <mxCell id="aPBboaxFpd1WZXJEu6mX-8" value="useEntryBatch updates values and checks if we need circle" style="rounded=1;whiteSpace=wrap;html=1;" vertex="1" parent="1">
          <mxGeometry x="570" y="80" width="150" height="70" as="geometry" />
        </mxCell>
        <mxCell id="aPBboaxFpd1WZXJEu6mX-19" style="edgeStyle=orthogonalEdgeStyle;rounded=0;orthogonalLoop=1;jettySize=auto;html=1;exitX=0.5;exitY=1;exitDx=0;exitDy=0;entryX=0.5;entryY=0;entryDx=0;entryDy=0;" edge="1" parent="1" source="aPBboaxFpd1WZXJEu6mX-16" target="aPBboaxFpd1WZXJEu6mX-18">
          <mxGeometry relative="1" as="geometry" />
        </mxCell>
        <mxCell id="aPBboaxFpd1WZXJEu6mX-16" value="canInteract = true" style="rounded=1;whiteSpace=wrap;html=1;" vertex="1" parent="1">
          <mxGeometry x="230" y="160" width="120" height="60" as="geometry" />
        </mxCell>
        <mxCell id="aPBboaxFpd1WZXJEu6mX-18" value="cache and dont check anything about batching" style="rounded=0;whiteSpace=wrap;html=1;" vertex="1" parent="1">
          <mxGeometry x="230" y="250" width="120" height="60" as="geometry" />
        </mxCell>
      </root>
    </mxGraphModel>
  </diagram>
</mxfile>
